<?xml version="1.0" encoding="UTF-8"?>
<svg width="97px" height="100px" viewBox="0 0 97 100" version="1.1" xmlns="http://www.w3.org/2000/svg" xmlns:xlink="http://www.w3.org/1999/xlink">
    <!-- Generator: Sketch 54.1 (76490) - https://sketchapp.com -->
    <title>Artboard</title>
    <desc>Created with Sketch.</desc>
    <defs>
        <path d="M10.88,91.352 L10.88,95.312 C10.88,95.762 10.574,96.014 10.088,96.014 C9.584,96.014 9.278,95.762 9.278,95.312 L9.278,82.748 C9.278,82.28 9.584,82.046 10.088,82.046 C10.538,82.046 10.88,82.262 10.88,82.712 L10.88,83.036 C10.88,83.288 10.862,83.72 10.808,84.026 C11.438,82.748 12.428,81.902 14.174,81.902 C16.874,81.902 18.404,83.864 18.404,87.068 C18.404,90.272 16.784,92.396 14.102,92.396 C12.428,92.396 11.402,91.568 10.79,90.308 C10.862,90.65 10.88,91.028 10.88,91.352 Z M13.94,83.306 C11.96,83.306 10.844,84.908 10.844,87.122 C10.844,89.354 12.014,90.974 13.904,90.974 C15.722,90.974 16.748,89.426 16.748,87.104 C16.748,84.764 15.758,83.306 13.94,83.306 Z M20.762,91.514 L20.762,82.748 C20.762,82.28 21.104,82.046 21.608,82.046 C22.058,82.046 22.418,82.28 22.418,82.748 L22.418,83.144 C22.418,83.396 22.346,83.702 22.31,83.99 C22.598,83.126 23.516,82.01 25.064,81.956 C25.208,81.938 25.334,81.938 25.46,81.938 C25.73,81.938 25.928,81.974 26.18,82.028 C26.594,82.082 26.756,82.334 26.756,82.676 C26.756,82.766 26.738,82.874 26.72,82.982 C26.648,83.36 26.396,83.684 26.018,83.684 C25.964,83.684 25.91,83.684 25.856,83.666 C25.604,83.612 25.37,83.558 24.992,83.558 C24.218,83.576 23.624,83.972 23.174,84.548 C22.706,85.124 22.436,85.79 22.418,86.546 L22.418,91.514 C22.418,92 22.058,92.234 21.608,92.234 C21.104,92.234 20.762,92 20.762,91.514 Z M35.756,87.446 L29.42,87.446 C29.456,89.66 30.554,91.046 32.498,91.046 C33.794,91.046 34.514,90.398 34.946,89.444 C35.108,89.12 35.342,88.994 35.594,88.994 C35.72,88.994 35.846,89.03 35.972,89.066 C36.278,89.156 36.53,89.372 36.53,89.696 C36.53,89.804 36.512,89.912 36.44,90.02 C35.864,91.208 34.82,92.396 32.48,92.396 C29.528,92.396 27.818,90.308 27.818,87.194 C27.818,84.08 29.438,81.902 32.372,81.902 C35,81.902 36.476,83.954 36.656,86.312 L36.656,86.456 C36.656,87.104 36.314,87.446 35.756,87.446 Z M29.474,86.132 L34.748,86.132 C34.946,86.132 35.018,86.06 35.018,85.898 L35.018,85.808 C34.802,84.53 34.028,83.216 32.372,83.216 C30.644,83.216 29.708,84.368 29.474,86.132 Z M45.692,82.64 L45.692,78.716 C45.692,78.23 46.034,77.996 46.484,77.996 C46.988,77.996 47.294,78.23 47.294,78.716 L47.294,91.514 C47.294,92 46.97,92.234 46.466,92.234 C45.944,92.234 45.692,91.946 45.692,91.568 L45.692,91.19 C45.692,90.992 45.728,90.614 45.746,90.362 C45.134,91.622 44.108,92.396 42.434,92.396 C39.806,92.396 38.15,90.326 38.15,87.086 C38.15,83.936 39.788,81.902 42.452,81.902 C44.126,81.902 45.134,82.694 45.764,83.972 C45.728,83.558 45.692,83.036 45.692,82.64 Z M42.668,83.306 C40.85,83.306 39.806,84.818 39.806,87.104 C39.806,89.462 40.85,90.992 42.668,90.992 C44.558,90.992 45.728,89.354 45.728,87.122 C45.728,84.926 44.648,83.306 42.668,83.306 Z M49.814,88.868 L49.814,82.766 C49.814,82.28 50.156,82.046 50.642,82.046 C51.128,82.046 51.47,82.28 51.47,82.766 L51.47,88.526 C51.47,90.074 52.1,90.938 53.432,90.938 C54.386,90.938 55.16,90.488 55.772,89.642 C56.204,89.03 56.384,88.472 56.384,87.77 L56.384,82.766 C56.384,82.28 56.726,82.046 57.212,82.046 C57.68,82.046 58.022,82.28 58.022,82.766 L58.022,91.514 C58.022,92 57.698,92.234 57.23,92.234 C56.744,92.234 56.402,92.018 56.402,91.568 L56.402,91.064 C56.402,90.866 56.456,90.506 56.51,90.218 C55.952,91.478 54.908,92.396 53.108,92.396 C50.984,92.396 49.814,91.064 49.814,88.868 Z M60.146,87.176 C60.146,84.098 61.73,81.884 64.682,81.884 C67.058,81.884 68.03,83.198 68.48,84.332 C68.516,84.422 68.534,84.53 68.534,84.602 C68.534,84.944 68.264,85.16 67.994,85.268 C67.868,85.304 67.724,85.322 67.598,85.322 C67.328,85.322 67.094,85.214 66.968,84.908 C66.626,83.99 66.086,83.288 64.718,83.288 C62.846,83.288 61.82,84.872 61.82,87.158 C61.82,89.516 62.828,91.01 64.736,91.01 C66.14,91.01 66.698,90.326 67.04,89.354 C67.166,89.012 67.418,88.868 67.706,88.868 C67.832,88.868 67.958,88.886 68.084,88.94 C68.408,89.012 68.66,89.228 68.66,89.552 C68.66,89.66 68.642,89.75 68.588,89.876 C68.102,91.118 67.148,92.414 64.7,92.414 C61.784,92.414 60.146,90.272 60.146,87.176 Z M72.224,88.58 L72.224,91.514 C72.224,92 71.9,92.234 71.414,92.234 C70.91,92.234 70.604,92 70.604,91.514 L70.604,78.698 C70.604,78.23 70.928,77.996 71.432,77.996 C71.9,77.996 72.224,78.194 72.224,78.662 L72.224,86.654 L76.616,82.28 C76.778,82.118 76.976,82.046 77.156,82.046 C77.39,82.046 77.606,82.136 77.75,82.316 C77.912,82.496 78.02,82.712 78.02,82.91 C78.02,83.09 77.948,83.252 77.786,83.414 L74.744,86.258 L78.326,91.028 C78.416,91.154 78.452,91.28 78.452,91.424 C78.452,91.694 78.272,91.964 78.038,92.108 C77.894,92.198 77.732,92.234 77.552,92.234 C77.318,92.234 77.084,92.144 76.94,91.946 L73.592,87.266 L72.224,88.58 Z M84.104,87.752 L83.078,87.554 C80.864,87.122 79.946,86.348 79.946,84.638 C79.946,83 81.35,81.884 83.672,81.884 C85.67,81.884 86.948,82.73 87.398,84.044 C87.416,84.116 87.434,84.188 87.434,84.26 C87.434,84.602 87.128,84.836 86.804,84.926 C86.714,84.944 86.606,84.962 86.516,84.962 C86.192,84.962 85.868,84.818 85.778,84.476 C85.544,83.666 84.752,83.252 83.726,83.252 C82.268,83.252 81.584,83.846 81.584,84.602 C81.584,85.43 81.926,85.79 83.438,86.114 L84.554,86.348 C86.894,86.834 87.83,87.518 87.83,89.408 C87.83,91.136 86.354,92.414 83.834,92.414 C81.53,92.414 80.18,91.496 79.712,89.894 C79.694,89.804 79.676,89.732 79.676,89.66 C79.676,89.3 79.982,89.048 80.324,88.976 C80.414,88.958 80.504,88.94 80.576,88.94 C80.918,88.94 81.242,89.084 81.35,89.426 C81.674,90.47 82.412,90.992 83.834,90.992 C85.274,90.992 86.21,90.362 86.21,89.444 C86.21,88.562 85.742,88.076 84.104,87.752 Z" id="path-1"></path>
        <filter x="-1.9%" y="-8.3%" width="103.8%" height="116.7%" filterUnits="objectBoundingBox" id="filter-2">
            <feOffset dx="0" dy="0" in="SourceAlpha" result="shadowOffsetOuter1"></feOffset>
            <feGaussianBlur stdDeviation="0.5" in="shadowOffsetOuter1" result="shadowBlurOuter1"></feGaussianBlur>
            <feColorMatrix values="0 0 0 0 1   0 0 0 0 0.858823529   0 0 0 0 0.784313725  0 0 0 1 0" type="matrix" in="shadowBlurOuter1"></feColorMatrix>
        </filter>
    </defs>
    <g id="Artboard" stroke="none" stroke-width="1" fill="none" fill-rule="evenodd">
        <g id="Group" transform="translate(14.000000, 3.000000)">
            <circle id="Oval" fill="#FFDBC8" cx="35" cy="35" r="35"></circle>
            <g id="Group-Copy" transform="translate(9.000000, 10.000000)">
                <path d="M33.9406486,38 C33.3547186,38 32.8791813,38.4381061 32.8791813,38.9779154 L32.8791813,47.1640453 L29.1640457,47.1640453 C28.6885084,47.1640453 28.1598977,47.3684296 28.0303987,47.7908891 C27.9008997,48.2123706 28.2161554,48.8040095 28.3934205,48.8040095 C28.3509618,48.9761226 28.3583921,49.1599707 28.424203,49.3379513 C28.424203,49.3379513 28.424203,49.3389292 28.424203,49.3389292 C28.4316333,49.3584875 28.4390636,49.3770679 28.4475553,49.3956483 C28.5505176,49.6254584 28.7373359,49.7995273 28.9634284,49.9012305 C29.0303009,49.9315459 29.1003577,49.9550159 29.171476,49.9706625 C29.2553319,49.9902208 29.3413108,50 29.4283511,50 C29.5366208,50 29.6459519,49.9843534 29.7531601,49.9530601 C29.7754509,49.9462147 29.7988032,49.9383913 29.821094,49.930568 C31.7423498,49.2470051 33.5012011,49.9139434 33.5128772,49.9178551 C33.8408706,50.0498737 34.2198145,50.0205362 34.5191482,49.8405998 C34.818482,49.6606634 34.9999929,49.3516421 34.9999929,49.0220846 L34.9999929,38.9788933 C35.0021159,38.4381061 34.5265785,38 33.9406486,38 Z" id="Path-Copy" fill="#000000" fill-rule="nonzero"></path>
                <path d="M22.9406486,38 C22.3547186,38 21.8791813,38.4381061 21.8791813,38.9779154 L21.8791813,47.1640453 L18.1640457,47.1640453 C17.6885084,47.1640453 17.1598977,47.3684296 17.0303987,47.7908891 C16.9008997,48.2123706 17.2161554,48.8040095 17.3934205,48.8040095 C17.3509618,48.9761226 17.3583921,49.1599707 17.424203,49.3379513 C17.424203,49.3379513 17.424203,49.3389292 17.424203,49.3389292 C17.4316333,49.3584875 17.4390636,49.3770679 17.4475553,49.3956483 C17.5505176,49.6254584 17.7373359,49.7995273 17.9634284,49.9012305 C18.0303009,49.9315459 18.1003577,49.9550159 18.171476,49.9706625 C18.2553319,49.9902208 18.3413108,50 18.4283511,50 C18.5366208,50 18.6459519,49.9843534 18.7531601,49.9530601 C18.7754509,49.9462147 18.7988032,49.9383913 18.821094,49.930568 C20.7423498,49.2470051 22.5012011,49.9139434 22.5128772,49.9178551 C22.8408706,50.0498737 23.2198145,50.0205362 23.5191482,49.8405998 C23.818482,49.6606634 23.9999929,49.3516421 23.9999929,49.0220846 L23.9999929,38.9788933 C24.0021159,38.4381061 23.5265785,38 22.9406486,38 Z" id="Path-Copy-4" fill="#000000" fill-rule="nonzero"></path>
                <path d="M9,17 L3.01932933,17 L3.01932933,17.5130543 C3.01932933,17.5130543 2.34243126,21.8135898 9,20.8627291" id="Path" stroke="#000000" stroke-width="1.8" fill="#FFFFC9" stroke-linecap="round" stroke-linejoin="round"></path>
                <path d="M9,18 L0,18 C0,14.5030888 1.95015259,13.685544 9,14.0975866" id="Path" stroke="#000000" stroke-width="1.8" fill="#FFFFC9" stroke-linecap="round" stroke-linejoin="round"></path>
                <path d="M50,25.8420227 C50,23.3330884 50,26.1762127 50,21.6601311 C50,17.1440494 47.5878244,17.0186027 46.0499002,17.0186027 C44.510978,17.0186027 41.5169661,17.0186027 37.0259481,17.0186027 C32.5349301,17.0186027 32.8722555,12.0027414 32.8722555,12.0027414 C32.8722555,5.37313357 27.5279441,0 20.9361277,0 L20.9361277,0 C14.3433134,0 9,5.37413714 9,12.0027414 L9,28.9972584 C9,35.6268662 14.3443114,40.9999998 20.9361277,40.9999998 L20.9361277,40.9999998 C20.9361277,40.9999998 29.6147705,40.9999998 33.4091816,40.9999998 C37.2025948,41.0010033 50,37.6761637 50,25.8420227 Z" id="Path" stroke="#FFFFC9" stroke-width="2" fill="#FFFFC9"></path>
                <path d="M32,23 L41.987655,23 C41.987655,23 42.4955191,28.5443126 36.9963668,28.7053388 C36.9963668,28.7053388 35.8932861,31.5179927 32.7617961,30.91535" id="Path" stroke="#000000" stroke-width="2" stroke-linecap="round" stroke-linejoin="round"></path>
                <circle id="Oval" fill="#000000" fill-rule="nonzero" cx="15.5" cy="12.5" r="1.5"></circle>
            </g>
        </g>
        <g id="preducks" fill-rule="nonzero">
            <use fill="black" fill-opacity="1" filter="url(#filter-2)" xlink:href="#path-1"></use>
            <use fill="#000000" xlink:href="#path-1"></use>
        </g>
    </g>
</svg>