<?xml version="1.0" encoding="UTF-8"?>
<svg width="16px" height="16px" viewBox="0 0 16 16" version="1.1" xmlns="http://www.w3.org/2000/svg" xmlns:xlink="http://www.w3.org/1999/xlink">
    <!-- Generator: Sketch 54.1 (76490) - https://sketchapp.com -->
    <title>Artboard</title>
    <desc>Created with Sketch.</desc>
    <g id="Artboard" stroke="none" stroke-width="1" fill="none" fill-rule="evenodd">
        <g id="Group-Copy" transform="translate(1.000000, 1.000000)"></g>
        <path d="M10.999998,11.9605962 L10.999998,14.4555211 C10.999998,14.5379105 10.9481377,14.6151658 10.8626138,14.6601499 C10.7770898,14.7051341 10.6688202,14.7124684 10.5751078,14.6794638 C10.5717717,14.6784859 10.0692428,14.5117513 9.52031257,14.682642 C9.51394377,14.6845978 9.50727169,14.6865537 9.50090288,14.688265 C9.47027197,14.6960883 9.4390345,14.7 9.40810031,14.7 C9.38323165,14.7 9.35866626,14.6975552 9.33470743,14.6926656 C9.31438791,14.688754 9.29437167,14.6828865 9.27526526,14.6753076 C9.2106674,14.6498818 9.15729076,14.6063646 9.12787295,14.5489121 C9.12544674,14.544267 9.1233238,14.5396219 9.12120087,14.5344878 C9.10239773,14.4899927 9.1002748,14.4440306 9.11240585,14.4010024 C9.0617587,14.4010024 8.97168562,14.2530927 9.00868533,14.1477223 C9.04568505,14.0421074 9.19671668,13.9910113 9.3325845,13.9910113 L10.3940518,13.9910113 L10.3940518,11.9999999 L7.99999798,11.9999999 L7.99999798,14.4555211 C7.99999798,14.5379105 7.94813772,14.6151658 7.86261378,14.6601499 C7.77708985,14.7051341 7.66882018,14.7124684 7.57510778,14.6794638 C7.57177174,14.6784859 7.0692428,14.5117513 6.52031257,14.682642 C6.51394377,14.6845978 6.50727169,14.6865537 6.50090288,14.688265 C6.47027197,14.6960883 6.4390345,14.7 6.40810031,14.7 C6.38323165,14.7 6.35866626,14.6975552 6.33470743,14.6926656 C6.31438791,14.688754 6.29437167,14.6828865 6.27526526,14.6753076 C6.2106674,14.6498818 6.15729076,14.6063646 6.12787295,14.5489121 C6.12544674,14.544267 6.1233238,14.5396219 6.12120087,14.5344878 C6.10239773,14.4899927 6.1002748,14.4440306 6.11240585,14.4010024 C6.0617587,14.4010024 5.97168562,14.2530927 6.00868533,14.1477223 C6.04568505,14.0421074 6.19671668,13.9910113 6.3325845,13.9910113 L7.39405179,13.9910113 L7.39405179,11.9999999 L7.20237574,11.9999999 C5.43383964,11.9999999 4,10.5584275 4,8.77975225 L4,6.9999938 C2.42405978,6.99731539 2.60644311,6.12826358 2.60644311,6.12826358 L2.60644311,6 L1.6,6 C1.6,5.20531317 2.13714326,4.64408556 4,4.62591252 L4,4.22024769 C4,2.44184167 5.43357188,1 7.20237574,1 C8.97091183,1 10.4047515,2.44157242 10.4047515,4.22024769 C10.4047515,4.22024769 10.3142495,5.56596659 11.5191568,5.56596659 C12.7240641,5.56596659 13.5273356,5.56596659 13.9402171,5.56596659 C14.3528309,5.56596659 15,5.59962302 15,6.81125468 C15,8.02288634 15,7.2600969 15,7.93322559 C15,10.7338594 12.3285179,11.7581608 10.999998,11.9605962 Z M6.38979764,4.96781467 C6.8040112,4.96781467 7.13979764,4.63202824 7.13979764,4.21781467 C7.13979764,3.80360111 6.8040112,3.46781467 6.38979764,3.46781467 C5.97558407,3.46781467 5.63979764,3.80360111 5.63979764,4.21781467 C5.63979764,4.63202824 5.97558407,4.96781467 6.38979764,4.96781467 Z M10,7.7 L10,9.67346181 C10.939447,9.82412248 11.4989101,9.12633469 11.4989101,9.12633469 C13.1486557,9.08607816 12.9962965,7.7 12.9962965,7.7 L10,7.7 Z" id="Combined-Shape" fill="#000000" fill-rule="nonzero"></path>
    </g>
</svg>