<?xml version="1.0" encoding="UTF-8"?>
<svg width="52px" height="53px" viewBox="0 0 52 53" version="1.1" xmlns="http://www.w3.org/2000/svg" xmlns:xlink="http://www.w3.org/1999/xlink">
    <!-- Generator: Sketch 54.1 (76490) - https://sketchapp.com -->
    <title>Artboard Copy 4</title>
    <desc>Created with Sketch.</desc>
    <g id="Artboard-Copy-4" stroke="none" stroke-width="1" fill="none" fill-rule="evenodd">
        <path d="M34.9406486,40 C34.3547186,40 33.8791813,40.4381061 33.8791813,40.9779154 L33.8791813,49.1640453 L30.1640457,49.1640453 C29.6885084,49.1640453 29.1598977,49.3684296 29.0303987,49.7908891 C28.9008997,50.2123706 29.2161554,50.8040095 29.3934205,50.8040095 C29.3509618,50.9761226 29.3583921,51.1599707 29.424203,51.3379513 C29.424203,51.3379513 29.424203,51.3389292 29.424203,51.3389292 C29.4316333,51.3584875 29.4390636,51.3770679 29.4475553,51.3956483 C29.5505176,51.6254584 29.7373359,51.7995273 29.9634284,51.9012305 C30.0303009,51.9315459 30.1003577,51.9550159 30.171476,51.9706625 C30.2553319,51.9902208 30.3413108,52 30.4283511,52 C30.5366208,52 30.6459519,51.9843534 30.7531601,51.9530601 C30.7754509,51.9462147 30.7988032,51.9383913 30.821094,51.930568 C32.7423498,51.2470051 34.5012011,51.9139434 34.5128772,51.9178551 C34.8408706,52.0498737 35.2198145,52.0205362 35.5191482,51.8405998 C35.818482,51.6606634 35.9999929,51.3516421 35.9999929,51.0220846 L35.9999929,40.9788933 C36.0021159,40.4381061 35.5265785,40 34.9406486,40 Z" id="Path-Copy" fill="#000000" fill-rule="nonzero"></path>
        <path d="M23.9406486,40 C23.3547186,40 22.8791813,40.4381061 22.8791813,40.9779154 L22.8791813,49.1640453 L19.1640457,49.1640453 C18.6885084,49.1640453 18.1598977,49.3684296 18.0303987,49.7908891 C17.9008997,50.2123706 18.2161554,50.8040095 18.3934205,50.8040095 C18.3509618,50.9761226 18.3583921,51.1599707 18.424203,51.3379513 C18.424203,51.3379513 18.424203,51.3389292 18.424203,51.3389292 C18.4316333,51.3584875 18.4390636,51.3770679 18.4475553,51.3956483 C18.5505176,51.6254584 18.7373359,51.7995273 18.9634284,51.9012305 C19.0303009,51.9315459 19.1003577,51.9550159 19.171476,51.9706625 C19.2553319,51.9902208 19.3413108,52 19.4283511,52 C19.5366208,52 19.6459519,51.9843534 19.7531601,51.9530601 C19.7754509,51.9462147 19.7988032,51.9383913 19.821094,51.930568 C21.7423498,51.2470051 23.5012011,51.9139434 23.5128772,51.9178551 C23.8408706,52.0498737 24.2198145,52.0205362 24.5191482,51.8405998 C24.818482,51.6606634 24.9999929,51.3516421 24.9999929,51.0220846 L24.9999929,40.9788933 C25.0021159,40.4381061 24.5265785,40 23.9406486,40 Z" id="Path-Copy-4" fill="#000000" fill-rule="nonzero"></path>
        <path d="M10,19 L4.01932933,19 L4.01932933,19.5130543 C4.01932933,19.5130543 3.34243126,23.8135898 10,22.8627291" id="Path" stroke="#000000" stroke-width="1.8" fill="#FFFFC9" stroke-linecap="round" stroke-linejoin="round"></path>
        <path d="M10,20 L1,20 C1,16.5030888 2.95015259,15.685544 10,16.0975866" id="Path" stroke="#000000" stroke-width="1.8" fill="#FFFFC9" stroke-linecap="round" stroke-linejoin="round"></path>
        <path d="M51,27.8420227 C51,25.3330884 51,28.1762127 51,23.6601311 C51,19.1440494 48.5878244,19.0186027 47.0499002,19.0186027 C45.510978,19.0186027 42.5169661,19.0186027 38.0259481,19.0186027 C33.5349301,19.0186027 33.8722555,14.0027414 33.8722555,14.0027414 C33.8722555,7.37313357 28.5279441,2 21.9361277,2 L21.9361277,2 C15.3433134,2 10,7.37413714 10,14.0027414 L10,30.9972584 C10,37.6268662 15.3443114,42.9999998 21.9361277,42.9999998 L21.9361277,42.9999998 C21.9361277,42.9999998 30.6147705,42.9999998 34.4091816,42.9999998 C38.2025948,43.0010033 51,39.6761637 51,27.8420227 Z" id="Path" stroke="#FFFFC9" stroke-width="2" fill="#FFFFC9"></path>
        <path d="M33,25 L42.987655,25 C42.987655,25 43.4955191,30.5443126 37.9963668,30.7053388 C37.9963668,30.7053388 36.8932861,33.5179927 33.7617961,32.91535" id="Path" stroke="#000000" stroke-width="2" stroke-linecap="round" stroke-linejoin="round"></path>
        <circle id="Oval" fill="#000000" fill-rule="nonzero" cx="16.5" cy="14.5" r="1.5"></circle>
    </g>
</svg>