<?xml version="1.0" encoding="UTF-8"?>
<svg width="70px" height="70px" viewBox="0 0 70 70" version="1.1" xmlns="http://www.w3.org/2000/svg" xmlns:xlink="http://www.w3.org/1999/xlink">
    <!-- Generator: Sketch 54.1 (76490) - https://sketchapp.com -->
    <title>Group</title>
    <desc>Created with Sketch.</desc>
    <defs>
        <linearGradient x1="50%" y1="0%" x2="50%" y2="100%" id="linearGradient-1">
            <stop stop-color="#FFE6D9" offset="0%"></stop>
            <stop stop-color="#FFD4BE" offset="100%"></stop>
        </linearGradient>
    </defs>
    <g id="Page-1" stroke="none" stroke-width="1" fill="none" fill-rule="evenodd">
        <g id="Artboard-Copy-6" transform="translate(-3.000000, -3.000000)">
            <g id="Group" transform="translate(3.000000, 3.000000)">
                <circle id="Oval" fill="url(#linearGradient-1)" cx="35" cy="35" r="35"></circle>
                <path d="M43.9406486,49 C43.3547186,49 42.8791813,49.4381061 42.8791813,49.9779154 L42.8791813,58.1640453 L39.1640457,58.1640453 C38.6885084,58.1640453 38.1598977,58.3684296 38.0303987,58.7908891 C37.9008997,59.2123706 38.2161554,59.8040095 38.3934205,59.8040095 C38.3509618,59.9761226 38.3583921,60.1599707 38.424203,60.3379513 C38.424203,60.3379513 38.424203,60.3389292 38.424203,60.3389292 C38.4316333,60.3584875 38.4390636,60.3770679 38.4475553,60.3956483 C38.5505176,60.6254584 38.7373359,60.7995273 38.9634284,60.9012305 C39.0303009,60.9315459 39.1003577,60.9550159 39.171476,60.9706625 C39.2553319,60.9902208 39.3413108,61 39.4283511,61 C39.5366208,61 39.6459519,60.9843534 39.7531601,60.9530601 C39.7754509,60.9462147 39.7988032,60.9383913 39.821094,60.930568 C41.7423498,60.2470051 43.5012011,60.9139434 43.5128772,60.9178551 C43.8408706,61.0498737 44.2198145,61.0205362 44.5191482,60.8405998 C44.818482,60.6606634 44.9999929,60.3516421 44.9999929,60.0220846 L44.9999929,49.9788933 C45.0021159,49.4381061 44.5265785,49 43.9406486,49 Z" id="Path-Copy" fill="#000000" fill-rule="nonzero"></path>
                <path d="M32.9406486,49 C32.3547186,49 31.8791813,49.4381061 31.8791813,49.9779154 L31.8791813,58.1640453 L28.1640457,58.1640453 C27.6885084,58.1640453 27.1598977,58.3684296 27.0303987,58.7908891 C26.9008997,59.2123706 27.2161554,59.8040095 27.3934205,59.8040095 C27.3509618,59.9761226 27.3583921,60.1599707 27.424203,60.3379513 C27.424203,60.3379513 27.424203,60.3389292 27.424203,60.3389292 C27.4316333,60.3584875 27.4390636,60.3770679 27.4475553,60.3956483 C27.5505176,60.6254584 27.7373359,60.7995273 27.9634284,60.9012305 C28.0303009,60.9315459 28.1003577,60.9550159 28.171476,60.9706625 C28.2553319,60.9902208 28.3413108,61 28.4283511,61 C28.5366208,61 28.6459519,60.9843534 28.7531601,60.9530601 C28.7754509,60.9462147 28.7988032,60.9383913 28.821094,60.930568 C30.7423498,60.2470051 32.5012011,60.9139434 32.5128772,60.9178551 C32.8408706,61.0498737 33.2198145,61.0205362 33.5191482,60.8405998 C33.818482,60.6606634 33.9999929,60.3516421 33.9999929,60.0220846 L33.9999929,49.9788933 C34.0021159,49.4381061 33.5265785,49 32.9406486,49 Z" id="Path-Copy-4" fill="#000000" fill-rule="nonzero"></path>
                <path d="M19,28 L13.0193293,28 L13.0193293,28.5130543 C13.0193293,28.5130543 12.3424313,32.8135898 19,31.8627291" id="Path" stroke="#000000" stroke-width="1.8" fill="#FFFFC9" stroke-linecap="round" stroke-linejoin="round"></path>
                <path d="M19,29 L10,29 C10,25.5030888 11.9501526,24.685544 19,25.0975866" id="Path" stroke="#000000" stroke-width="1.8" fill="#FFFFC9" stroke-linecap="round" stroke-linejoin="round"></path>
                <path d="M60,36.8420227 C60,34.3330884 60,37.1762127 60,32.6601311 C60,28.1440494 57.5878244,28.0186027 56.0499002,28.0186027 C54.510978,28.0186027 51.5169661,28.0186027 47.0259481,28.0186027 C42.5349301,28.0186027 42.8722555,23.0027414 42.8722555,23.0027414 C42.8722555,16.3731336 37.5279441,11 30.9361277,11 L30.9361277,11 C24.3433134,11 19,16.3741371 19,23.0027414 L19,39.9972584 C19,46.6268662 24.3443114,51.9999998 30.9361277,51.9999998 L30.9361277,51.9999998 C30.9361277,51.9999998 39.6147705,51.9999998 43.4091816,51.9999998 C47.2025948,52.0010033 60,48.6761637 60,36.8420227 Z" id="Path" stroke="#FFFFC9" stroke-width="2" fill="#FFFFC9"></path>
                <path d="M42,34 L51.987655,34 C51.987655,34 52.4955191,39.5443126 46.9963668,39.7053388 C46.9963668,39.7053388 45.8932861,42.5179927 42.7617961,41.91535" id="Path" stroke="#000000" stroke-width="2" stroke-linecap="round" stroke-linejoin="round"></path>
                <circle id="Oval" fill="#000000" fill-rule="nonzero" cx="25.5" cy="23.5" r="1.5"></circle>
            </g>
        </g>
    </g>
</svg>